<?xml version="1.0" standalone="no"?>
<!DOCTYPE svg PUBLIC "-//W3C//DTD SVG 20010904//EN"
 "http://www.w3.org/TR/2001/REC-SVG-20010904/DTD/svg10.dtd">
<svg version="1.0" xmlns="http://www.w3.org/2000/svg"
 width="500.000000pt" height="500.000000pt" viewBox="0 0 500.000000 500.000000"
 preserveAspectRatio="xMidYMid meet">
<metadata>
Created by potrace 1.14, written by Peter Selinger 2001-2017
</metadata>
<g transform="translate(0.000000,500.000000) scale(0.100000,-0.100000)"
fill="#000000" stroke="none">
<path d="M23 3792 c-13 -2 -23 -10 -23 -18 0 -16 36 -19 45 -3 4 6 14 8 22 5
9 -4 13 -1 11 6 -5 13 -22 16 -55 10z"/>
<path d="M1045 3752 c-3 -3 -227 -5 -499 -5 -272 0 -498 -2 -504 -6 -5 -3 -11
-35 -13 -71 l-4 -65 48 0 c37 0 52 -5 63 -19 33 -45 3 -108 -50 -106 -17 1
-36 2 -42 1 -6 -1 -11 -29 -12 -68 -2 -70 5 -83 44 -83 34 0 57 -44 47 -88 -8
-35 -11 -37 -51 -40 -48 -4 -52 -12 -55 -103 l-2 -54 43 -1 c47 -1 60 -9 67
-42 5 -29 -18 -44 -64 -44 -43 1 -48 -6 -58 -71 -5 -40 16 -77 43 -77 16 0
104 -41 120 -55 6 -5 30 -21 52 -35 23 -14 42 -29 42 -34 0 -5 7 -14 15 -20 8
-6 28 -38 44 -71 26 -53 29 -69 26 -130 -5 -111 -41 -191 -98 -221 -90 -48
-126 -63 -170 -69 -26 -4 -50 -12 -54 -18 -3 -6 -7 -34 -9 -63 -3 -60 2 -64
75 -62 48 0 61 -11 61 -54 0 -33 -45 -62 -72 -47 -24 13 -32 -6 -34 -79 -2
-67 11 -86 54 -77 27 5 51 -14 56 -45 6 -38 -20 -60 -71 -60 -27 0 -43 -5 -44
-12 -12 -121 -6 -138 51 -138 29 0 39 -5 50 -24 14 -28 7 -72 -12 -73 -29 -1
-72 -13 -81 -22 -14 -14 -18 -129 -5 -137 6 -4 234 -6 507 -6 273 1 809 1
1191 0 382 0 738 -1 790 0 396 1 2391 11 2413 11 27 1 27 2 27 65 0 67 -13 85
-48 68 -29 -15 -67 1 -70 30 -5 43 36 80 99 87 8 1 10 99 3 124 -4 11 -15 17
-35 17 -19 0 -39 10 -55 25 -21 21 -24 31 -19 58 4 18 9 33 10 35 2 2 25 7 52
10 l48 7 0 60 0 60 -50 0 -50 0 0 50 0 50 45 1 c25 1 52 2 61 3 13 1 16 15 18
71 2 60 -1 71 -16 76 -78 27 -153 70 -191 112 -108 118 -133 241 -72 361 17
34 38 69 48 79 34 34 135 92 159 92 9 0 31 5 49 12 26 9 33 18 38 49 8 49 1
64 -31 67 -41 3 -72 28 -68 54 5 40 16 58 41 64 32 8 40 21 48 74 8 56 -1 69
-49 75 -45 6 -65 20 -65 47 0 33 18 55 60 72 l40 16 0 72 c0 93 -7 104 -54 83
-45 -20 -74 47 -37 84 13 13 34 21 55 21 45 0 66 22 66 70 0 74 122 68 -1412
69 -1355 2 -2411 7 -2496 14 -23 2 -45 1 -47 -1z"/>
</g>
</svg>
